# This file uses centimeters as units for non-parametric coordinates.

mtllib Elbow.mtl
g default
v -9.001769 -0.455902 -9.999999
v -9.001769 -0.455902 -9.001801
v -9.999999 -0.455902 -9.001801
v -10.001770 0.455902 -10.001802
v -10.001770 0.375791 -9.081911
v -10.001770 0.455902 -9.275314
v -10.001770 0.182388 -9.001801
v -9.081880 0.375791 -9.081911
v -9.275283 0.455902 -9.275314
v -9.001769 0.182388 -9.001801
v -9.081880 0.375791 -10.001802
v -9.001769 0.182388 -10.001802
v -9.275283 0.455902 -10.001802
v 9.001769 -0.455902 -9.998197
v 9.001769 -0.455902 9.001802
v -9.998229 -0.455902 9.001802
v 10.001770 0.455902 -9.998197
v 10.001770 0.455902 9.001802
v 9.001769 0.455902 10.001801
v 10.001770 0.455902 10.001801
v -9.998229 0.455902 10.001801
v 9.041824 0.415846 -9.998197
v 9.138526 0.455902 -9.998197
v 9.001769 0.319145 -9.998197
v -9.998229 0.455902 9.138559
v -9.998229 0.415846 9.041858
v -9.998229 0.319145 9.001802
v 9.041824 0.415846 9.041858
v 9.001769 0.319145 9.001802
v 9.138526 0.455902 9.138559
v 9.001769 -0.455902 -9.001801
v 9.001769 0.319145 -9.001801
v 9.041824 0.415846 -8.999689
v 9.138526 0.455902 -8.994594
v 10.001770 0.455902 -9.001801
v -9.001769 -0.455902 9.001802
v -9.001769 0.319145 9.001802
v -8.999696 0.415846 9.041858
v -8.994693 0.455902 9.138559
v -9.001769 0.455902 10.001801
vt 1.000000 0.036324
vt 1.000000 0.045995
vt 0.954005 0.045995
vt 0.963676 0.036324
vt 1.000000 0.050000
vt 0.950000 0.050000
vt 0.954005 -0.000000
vt 0.963676 -0.000000
vt 0.950000 -0.000000
vt 1.000000 -0.000000
vt 2.000000 0.000000
vt 2.050000 0.000000
vt 2.050000 0.100000
vt 2.000000 0.100000
vt 2.950000 0.000000
vt 3.000000 0.000000
vt 3.000000 0.100000
vt 2.950000 0.100000
vt -2.049861 1.000000
vt -2.949861 1.000000
vt -2.949861 0.950000
vt -2.049861 0.950000
vt 0.043162 0.000000
vt 0.047997 0.000000
vt 0.047997 0.049925
vt 0.043162 0.050180
vt 0.050000 0.000000
vt 0.050000 0.049820
vt 0.950177 0.950000
vt 0.950073 0.952003
vt 0.047997 0.952003
vt 0.050000 0.950000
vt 0.949823 0.956838
vt 0.043162 0.956838
vt 0.000000 0.049820
vt 0.000000 0.000000
vt 0.000000 0.950000
vt 0.050000 1.000000
vt 0.000000 1.000000
vt 0.950177 1.000000
vt 2.050000 0.100000
vt 2.000000 0.100000
vt 2.000000 0.000000
vt 2.050000 0.000000
vt 3.000000 0.000000
vt 3.950000 0.000000
vt 3.950000 0.100000
vt 3.000000 0.100000
vt -2.949861 0.050000
vt -2.049861 0.050000
vt -2.999861 0.950000
vt -2.999861 0.050000
vt 4.000000 0.000000
vt 4.000000 0.100000
vt 1.000000 0.950000
vt 1.000000 0.952003
vt 1.000000 0.956838
vt 1.000000 1.000000
vn 0.000000 0.995424 0.095553
vn 0.000000 0.684299 0.729202
vn 0.510720 0.691614 0.510720
vn 0.096599 0.990625 0.096599
vn 0.000000 0.093119 0.995655
vn 0.703092 0.106356 0.703101
vn 0.729202 0.684299 -0.000000
vn 0.095553 0.995424 -0.000000
vn 0.995655 0.093122 -0.000000
vn 0.000000 1.000000 0.000000
vn 0.000000 0.000000 1.000000
vn 0.707101 0.000000 0.707112
vn 1.000000 0.000000 -0.000000
vn 0.000000 1.000000 0.000000
vn 0.000000 1.000000 0.000000
vn 0.000000 1.000000 0.000000
vn 0.000000 1.000000 0.000000
vn -0.041730 0.999129 0.000000
vn -0.706576 0.707637 0.000000
vn -0.712351 0.701824 0.000000
vn -0.042583 0.999093 -0.000000
vn -0.998944 0.045943 0.000000
vn -0.998966 0.045473 0.000000
vn -0.000000 0.045482 -0.998965
vn -0.000000 0.701930 -0.712246
vn -0.337371 0.878841 -0.337371
vn -0.704958 0.077918 -0.704956
vn -0.000000 0.999094 -0.042568
vn -0.012293 0.999849 -0.012293
vn 0.000000 1.000000 0.000000
vn 0.000000 1.000000 0.000000
vn -0.000000 1.000000 -0.000000
vn 0.000000 1.000000 0.000000
vn -0.000000 1.000000 -0.000000
vn 0.000000 1.000000 0.000000
vn -1.000000 0.000000 0.000000
vn -1.000000 0.000000 0.000000
vn -0.707108 0.000000 -0.707106
vn -0.000000 0.000000 -1.000000
vn 0.000000 1.000000 0.000000
vn 0.000000 1.000000 0.000000
vn 0.000000 1.000000 0.000000
vn 0.000000 1.000000 0.000000
vn -0.000000 0.000000 -1.000000
vn -0.000000 0.045942 -0.998944
vn -0.000000 0.707625 -0.706588
vn -0.000000 0.999129 -0.041729
vn 0.000000 1.000000 0.000000
s 1
g polySurface2
usemtl blinn1SG
f 6/1/1 5/2/2 8/3/3 9/4/4
f 5/2/2 7/5/5 10/6/6 8/3/3
f 9/4/4 8/3/3 11/7/7 13/8/8
f 8/3/3 10/6/6 12/9/9 11/7/7
f 9/4/4 13/8/8 4/10/10 6/1/1
usemtl blinn2SG
f 3/11/11 2/12/12 10/13/6 7/14/5
f 2/15/12 1/16/13 12/17/9 10/18/6
s 2
usemtl blinn3SG
f 14/19/14 1/20/15 2/21/16 31/22/17
s 3
usemtl blinn1SG
f 23/23/18 22/24/19 33/25/20 34/26/21
f 22/24/19 24/27/22 32/28/23 33/25/20
f 37/29/24 38/30/25 28/31/26 29/32/27
f 38/30/25 39/33/28 30/34/29 28/31/26
f 35/35/30 17/36/31 23/23/18 34/26/21
f 18/37/32 30/34/29 19/38/33 20/39/34
f 30/34/29 39/33/28 40/40/35 19/38/33
usemtl blinn2SG
f 32/41/23 24/42/22 14/43/36 31/44/37
f 15/45/38 36/46/39 37/47/24 29/48/27
s 2
usemtl blinn3SG
f 31/22/17 2/21/16 36/49/40 15/50/41
s 3
usemtl blinn2SG
f 29/48/27 32/41/23 31/44/37 15/45/38
usemtl blinn1SG
f 33/25/20 32/28/23 29/32/27 28/31/26
f 34/26/21 33/25/20 28/31/26 30/34/29
f 18/37/32 35/35/30 34/26/21 30/34/29
s 2
usemtl blinn3SG
f 36/49/40 2/21/16 3/51/42 16/52/43
s 3
usemtl blinn2SG
f 37/47/24 36/46/39 16/53/44 27/54/45
usemtl blinn1SG
f 27/55/45 26/56/46 38/30/25 37/29/24
f 26/56/46 25/57/47 39/33/28 38/30/25
f 40/40/35 39/33/28 25/57/47 21/58/48
