# This file uses centimeters as units for non-parametric coordinates.

mtllib End_2.mtl
g default
v 10.000000 0.000000 9.000001
v 10.000000 0.000000 -9.000001
v -9.000001 0.000000 9.000001
v -9.000001 0.000000 -9.000001
v 10.000000 0.911803 10.000001
v 10.000000 0.911803 -10.000000
v -9.000001 0.911803 10.000001
v -10.000000 0.911803 9.000001
v -10.000000 0.911803 10.000001
v -9.000001 0.911803 -10.000000
v -10.000000 0.911803 -10.000000
v -10.000000 0.911803 -9.000001
v 10.000001 0.831693 9.080109
v 10.000001 0.911803 9.273514
v 10.000001 0.638290 8.999997
v 10.000001 0.831693 -9.080116
v 10.000000 0.638290 -9.000001
v 10.000001 0.911803 -9.273515
v -9.080106 0.831693 9.080109
v -9.000001 0.638290 8.999997
v -9.273514 0.911803 9.273514
v -9.080107 0.831693 -9.080116
v -9.273514 0.911803 -9.273516
v -9.000001 0.638290 -9.000001
vt 1.000000 0.043162
vt 2.000000 0.100000
vt 1.000000 0.047997
vt 0.047997 0.047997
vt 0.043162 0.043162
vt 1.000000 0.050000
vt 0.050000 0.050000
vt 1.000000 0.950000
vt 1.000000 0.952003
vt 5.000000 0.100000
vt 4.000000 0.100000
vt 3.000000 0.100000
vt 0.047997 0.952003
vt 0.050000 0.950000
vt 2.000000 0.000000
vt 1.000000 0.956838
vt 5.000000 0.000000
vt 0.043162 0.956838
vt 0.050000 0.000000
vt 3.000000 0.000000
vt 1.000000 0.000000
vt 1.000000 1.000000
vt 0.050000 1.000000
vt 4.000000 0.000000
vt -0.000000 0.050000
vt -0.000000 0.000000
vt -0.000000 1.000000
vt -0.000000 0.950000
vt -2.000000 0.050000
vt -2.000000 0.950000
vt -2.950000 0.950000
vt -2.950000 0.050000
vn 0.000000 1.000000 0.000000
vn 0.000000 1.000000 0.000000
vn 0.000000 1.000000 0.000000
vn 0.000000 1.000000 0.000000
vn 0.000000 0.996217 -0.086901
vn 0.000000 0.708158 -0.706053
vn 0.387216 0.827407 -0.406770
vn 0.047130 0.997674 -0.049244
vn 0.000000 0.096029 -0.995378
vn 0.681493 0.136623 -0.718958
vn -0.000000 0.096038 0.995378
vn 0.000000 0.708155 0.706057
vn 0.387217 0.827405 0.406772
vn 0.681493 0.136629 0.718958
vn 0.000000 0.996217 0.086901
vn 0.047130 0.997674 0.049244
vn 0.000000 1.000000 0.000000
vn 0.000000 1.000000 0.000000
vn 0.000000 1.000000 0.000000
vn 0.000000 1.000000 0.000000
vn -0.000000 1.000000 -0.000000
vn 0.000000 1.000000 0.000000
vn 0.000000 1.000000 0.000000
vn -0.000000 1.000000 -0.000000
vn 0.000000 -0.000006 -1.000000
vn 0.687744 -0.000004 -0.725953
vn 0.687745 0.000000 0.725953
vn -0.000000 0.000000 1.000000
s off
g pCube10
usemtl blinn3SG
f 1/29/1 2/30/2 4/31/3 3/32/4
s 1
usemtl blinn1SG
f 14/1/5 13/3/6 19/4/7 21/5/8
f 13/3/6 15/6/9 20/7/10 19/4/7
f 17/8/11 16/9/12 22/13/13 24/14/14
f 16/9/12 18/16/15 23/18/16 22/13/13
f 21/5/8 19/4/7 22/13/13 23/18/16
f 19/4/7 20/7/10 24/14/14 22/13/13
f 7/19/17 5/21/18 14/1/5 21/5/8
f 23/18/16 18/16/15 6/22/19 10/23/20
f 7/19/17 21/5/8 8/25/21 9/26/22
f 23/18/16 10/23/20 11/27/23 12/28/24
f 21/5/8 23/18/16 12/28/24 8/25/21
usemtl blinn2SG
f 20/20/10 15/15/9 1/2/25 3/12/26
f 4/11/27 2/10/28 17/17/11 24/24/14
f 3/12/26 4/11/27 24/24/14 20/20/10
