# This file uses centimeters as units for non-parametric coordinates.

mtllib End_3.mtl
g default
v -10.000000 0.000000 -9.000001
v -10.000000 0.000000 9.000001
v 9.000001 0.000000 -9.000001
v 9.000001 0.000000 9.000001
v -10.000000 0.911803 -10.000001
v -10.000000 0.911803 10.000000
v 9.000001 0.911803 -10.000001
v 10.000000 0.911803 -9.000001
v 10.000000 0.911803 -10.000001
v 9.000001 0.911803 10.000000
v 10.000000 0.911803 10.000000
v 10.000000 0.911803 9.000001
v -10.000000 0.871748 -9.040055
v -10.000000 0.911803 -9.136757
v -10.000000 0.775046 -9.000001
v -10.000000 0.871748 9.040055
v -10.000000 0.775046 9.000001
v -10.000000 0.911803 9.136757
v 9.040055 0.871748 -9.040055
v 9.000001 0.775046 -9.000001
v 9.136757 0.911803 -9.136757
v 9.040055 0.871748 9.040055
v 9.136757 0.911803 9.136757
v 9.000001 0.775046 9.000001
vt 0.043162 0.000000
vt 2.000000 0.100000
vt 0.047997 0.000000
vt 0.047997 0.952003
vt 0.043162 0.956838
vt 0.050000 0.000000
vt 0.050000 0.950000
vt 0.950000 0.000000
vt 0.952003 0.000000
vt 5.000000 0.100000
vt 4.000000 0.100000
vt 3.000000 0.100000
vt 0.952003 0.952003
vt 0.950000 0.950000
vt 2.000000 0.000000
vt 0.956838 0.000000
vt 5.000000 0.000000
vt 0.956838 0.956838
vt -0.000000 0.950000
vt 3.000000 0.000000
vt -0.000000 0.000000
vt 1.000000 0.000000
vt 1.000000 0.950000
vt 4.000000 0.000000
vt 0.050000 1.000000
vt -0.000000 1.000000
vt 1.000000 1.000000
vt 0.950000 1.000000
vt -3.000000 0.950000
vt -3.000000 0.050000
vt -2.050000 0.050000
vt -2.050000 0.950000
vn 0.000000 1.000000 0.000000
vn 0.000000 1.000000 0.000000
vn 0.000000 1.000000 0.000000
vn 0.000000 1.000000 0.000000
vn 0.000000 0.999129 0.041730
vn 0.000000 0.707630 0.706583
vn -0.387339 0.826805 0.407874
vn -0.020175 0.999572 0.021187
vn 0.000000 0.045942 0.998944
vn -0.686307 0.065688 0.724340
vn -0.000000 0.045942 -0.998944
vn -0.000000 0.707630 -0.706583
vn -0.387339 0.826805 -0.407874
vn -0.686307 0.065688 -0.724340
vn -0.000000 0.999129 -0.041730
vn -0.020175 0.999572 -0.021187
vn 0.000000 1.000000 0.000000
vn 0.000000 1.000000 0.000000
vn 0.000000 1.000000 0.000000
vn -0.000000 1.000000 0.000000
vn 0.000000 1.000000 -0.000000
vn 0.000000 1.000000 0.000000
vn -0.000000 1.000000 0.000000
vn 0.000000 1.000000 -0.000000
vn 0.000000 0.000000 1.000000
vn -0.687745 0.000000 0.725953
vn -0.687745 0.000000 -0.725953
vn -0.000000 0.000000 -1.000000
s off
g pCube7
usemtl blinn3SG
f 1/29/1 2/30/2 4/31/3 3/32/4
s 1
usemtl blinn1SG
f 14/1/5 13/3/6 19/4/7 21/5/8
f 13/3/6 15/6/9 20/7/10 19/4/7
f 17/8/11 16/9/12 22/13/13 24/14/14
f 16/9/12 18/16/15 23/18/16 22/13/13
f 21/5/8 19/4/7 22/13/13 23/18/16
f 19/4/7 20/7/10 24/14/14 22/13/13
f 7/19/17 5/21/18 14/1/5 21/5/8
f 23/18/16 18/16/15 6/22/19 10/23/20
f 7/19/17 21/5/8 8/25/21 9/26/22
f 23/18/16 10/23/20 11/27/23 12/28/24
f 21/5/8 23/18/16 12/28/24 8/25/21
usemtl blinn2SG
f 20/20/10 15/15/9 1/2/25 3/12/26
f 4/11/27 2/10/28 17/17/11 24/24/14
f 3/12/26 4/11/27 24/24/14 20/20/10
