# This file uses centimeters as units for non-parametric coordinates.

mtllib Straight_1.mtl
g default
v -8.999997 0.000000 10.000000
v -8.999997 0.000000 -10.000000
v 9.000002 0.000000 10.000000
v 9.000002 0.000000 -10.000000
v -10.000001 0.911803 10.000000
v -10.000001 0.911803 -10.000000
v 10.000005 0.911803 10.000000
v 10.000005 0.911803 -10.000000
v -9.080109 0.831693 10.000000
v -9.273514 0.911803 10.000000
v -8.999997 0.638290 10.000000
v -9.273514 0.911803 -10.000000
v -9.080109 0.831693 -10.000000
v -8.999997 0.638290 -10.000000
v 9.080117 0.831693 10.000000
v 9.000002 0.638290 10.000000
v 9.273516 0.911803 10.000000
v 9.080117 0.831693 -10.000000
v 9.273516 0.911803 -10.000000
v 9.000002 0.638290 -10.000000
vt -2.950000 0.000000
vt -2.050000 0.000000
vt -2.050000 1.000000
vt 0.036324 0.000000
vt 4.000000 0.000000
vt 0.045995 0.000000
vt 0.045995 1.000000
vt 0.036324 1.000000
vt 5.000000 0.000000
vt 5.000000 0.100000
vt 4.000000 0.100000
vt 0.050000 0.000000
vt 0.050000 1.000000
vt 3.000000 0.100000
vt 0.950000 0.000000
vt 0.954005 0.000000
vt 0.954005 1.000000
vt 2.000000 0.100000
vt 0.950000 1.000000
vt 0.963676 0.000000
vt 2.000000 0.000000
vt 0.963676 1.000000
vt 0.000000 1.000000
vt 0.000000 0.000000
vt 1.000000 0.000000
vt 3.000000 0.000000
vt 1.000000 1.000000
vt -2.950000 1.000000
vn 0.000000 1.000000 0.000000
vn 0.000000 1.000000 0.000000
vn 0.000000 1.000000 0.000000
vn 0.000000 1.000000 0.000000
vn 0.086758 0.996229 0.000000
vn 0.707103 0.707111 0.000000
vn 0.707103 0.707111 0.000000
vn 0.086758 0.996229 0.000000
vn 0.995393 0.095880 0.000000
vn 0.995393 0.095880 0.000000
vn -0.995393 0.095884 0.000000
vn -0.707106 0.707108 0.000000
vn -0.707106 0.707108 0.000000
vn -0.995393 0.095884 0.000000
vn -0.086759 0.996229 0.000000
vn -0.086759 0.996229 0.000000
vn 0.000000 1.000000 0.000000
vn 0.000000 1.000000 0.000000
vn 0.000000 1.000000 0.000000
vn 0.000000 1.000000 0.000000
vn 1.000000 0.000000 0.000000
vn 1.000000 0.000000 0.000000
vn -1.000000 0.000000 0.000000
vn -1.000000 0.000000 0.000000
s off
g pCube1
usemtl blinn3SG
f 1/1/1 3/2/2 4/3/3 2/28/4
s 1
usemtl blinn1SG
f 10/4/5 9/6/6 13/7/7 12/8/8
f 9/6/6 11/12/9 14/13/10 13/7/7
s 2
f 16/15/11 15/16/12 18/17/13 20/19/14
f 15/16/12 17/20/15 19/22/16 18/17/13
s 1
f 10/4/5 12/8/8 6/23/17 5/24/18
s 2
f 7/25/19 8/27/20 19/22/16 17/20/15
s 1
usemtl blinn2SG
f 1/5/21 2/9/22 14/10/10 11/11/9
s 2
f 16/14/11 20/18/14 4/21/23 3/26/24
