# This file uses centimeters as units for non-parametric coordinates.

mtllib T-int_1.mtl
g default
v -9.000000 0.000000 10.000000
v 9.000000 0.000000 10.000000
v -10.000000 0.000000 -8.999999
v -9.000000 0.000000 -9.000000
v 8.999999 0.000000 -9.000000
v 10.000000 0.000000 -8.999999
v -10.000000 0.000000 8.999999
v -9.000000 0.000000 8.999999
v 9.000000 0.000000 8.999999
v 10.000000 0.000000 8.999999
v 10.000000 0.911803 -10.000000
v 9.000000 0.911803 -10.000000
v -9.000000 0.911803 -10.000000
v -10.000000 0.911803 -10.000000
v -10.000000 0.911803 10.000000
v 10.000000 0.911803 10.000000
v 8.999999 0.831693 -9.080110
v 8.999999 0.638290 -9.000000
v 8.999999 0.911803 -9.273514
v 10.000000 0.911803 -9.273513
v 10.000000 0.831693 -9.080110
v 10.000000 0.638290 -8.999999
v -10.000000 0.911803 -9.273513
v -10.000000 0.638290 -8.999999
v -10.000000 0.831693 -9.080110
v -9.000000 0.831693 -9.080110
v -9.000000 0.911803 -9.273514
v -9.000000 0.638290 -9.000000
v -9.080110 0.831693 10.000000
v -9.273514 0.911803 10.000000
v -9.000000 0.638290 10.000000
v -9.080110 0.831693 9.080110
v -9.273514 0.911803 9.273513
v -9.000000 0.638290 8.999999
v -10.000000 0.911803 9.273513
v -10.000000 0.831693 9.080110
v -10.000000 0.638290 8.999999
v 10.000000 0.831693 9.080110
v 10.000000 0.911803 9.273513
v 10.000000 0.638290 8.999999
v 9.080110 0.831693 9.080110
v 9.273514 0.911803 9.273513
v 9.000000 0.638290 8.999999
v 9.080110 0.831693 10.000000
v 9.000000 0.638290 10.000000
v 9.273514 0.911803 10.000000
vt -3.000000 0.052632
vt -2.950000 0.052632
vt -2.950000 0.950000
vt -3.000000 0.950000
vt 0.950000 0.950000
vt -2.050000 0.052632
vt 0.950000 0.954005
vt -2.050000 0.950000
vt 0.050000 0.954005
vt 0.050000 0.950000
vt 0.950000 0.963676
vt 0.050000 0.963676
vt -2.000000 0.052632
vt -2.000000 0.950000
vt -2.950000 0.000000
vt -2.050000 0.000000
vt 1.000000 0.954005
vt 1.000000 0.963675
vt 1.000000 0.950000
vt -0.000000 0.963675
vt -0.000000 0.954005
vt -0.000000 0.950000
vt 0.036324 -0.000000
vt 0.045994 -0.000000
vt 0.045994 0.045995
vt 0.036324 0.036324
vt 0.050000 -0.000000
vt 0.050000 0.050000
vt -0.000000 0.045995
vt -0.000000 0.036324
vt -0.000000 0.050000
vt 1.000000 0.036324
vt 1.000000 0.045995
vt 0.954005 0.045995
vt 0.963676 0.036324
vt 1.000000 0.050000
vt 0.950000 0.050000
vt 0.954005 -0.000000
vt 0.963676 -0.000000
vt 0.950000 -0.000000
vt 1.000000 1.000000
vt 0.950000 1.000000
vt 0.050000 1.000000
vt -0.000000 1.000000
vt -0.000000 -0.000000
vt 1.000000 -0.000000
vt 2.950000 0.000000
vt 3.000000 0.000000
vt 3.000000 0.100000
vt 2.950000 0.100000
vt 2.000000 0.000000
vt 2.050000 0.000000
vt 2.050000 0.100000
vt 2.000000 0.100000
vt 2.950000 0.000000
vt 3.000000 0.000000
vt 3.000000 0.100000
vt 2.950000 0.100000
vt 2.000000 0.000000
vt 2.050000 0.000000
vt 2.050000 0.100000
vt 2.000000 0.100000
vt 2.000000 0.000000
vt 2.050000 0.000000
vt 2.050000 0.100000
vt 2.000000 0.100000
vt 2.950000 0.000000
vt 3.000000 0.000000
vt 3.000000 0.100000
vt 2.950000 0.100000
vn 0.000000 1.000000 0.000000
vn 0.000000 1.000000 0.000000
vn 0.000000 1.000000 0.000000
vn 0.000000 1.000000 0.000000
vn 0.000000 1.000000 0.000000
vn 0.000000 1.000000 0.000000
vn 0.000000 1.000000 0.000000
vn 0.000000 1.000000 0.000000
vn 0.000000 1.000000 0.000000
vn 0.000000 1.000000 0.000000
vn -0.000000 0.095878 0.995393
vn -0.000000 0.707107 0.707107
vn 0.000000 0.707107 0.707107
vn 0.000000 0.095878 0.995393
vn -0.000000 0.996229 0.086758
vn 0.000000 0.996229 0.086758
vn -0.000001 0.707107 0.707107
vn -0.000000 0.996229 0.086759
vn -0.000001 0.095878 0.995393
vn 0.000000 0.996229 0.086759
vn 0.000001 0.707107 0.707107
vn 0.000001 0.095878 0.995393
vn 0.095553 0.995424 0.000000
vn 0.729202 0.684298 0.000000
vn 0.435846 0.787449 -0.435846
vn 0.081007 0.993416 -0.081007
vn 0.995673 0.092929 0.000000
vn 0.701150 0.129531 -0.701149
vn 0.000000 0.684298 -0.729202
vn 0.000000 0.995424 -0.095553
vn 0.000000 0.092930 -0.995673
vn 0.000000 0.995424 -0.095553
vn 0.000000 0.684298 -0.729202
vn -0.435846 0.787449 -0.435846
vn -0.081007 0.993416 -0.081007
vn 0.000000 0.092930 -0.995673
vn -0.701150 0.129531 -0.701149
vn -0.729202 0.684298 0.000000
vn -0.095553 0.995424 0.000000
vn -0.995673 0.092929 0.000000
vn 0.000000 1.000000 0.000000
vn 0.000000 1.000000 -0.000000
vn 0.000000 1.000000 -0.000000
vn 0.000000 1.000000 0.000000
vn 0.000000 1.000000 0.000000
vn 0.000000 1.000000 0.000000
vn -0.000000 0.000000 1.000000
vn -0.000001 0.000000 1.000000
vn 0.000001 0.000000 1.000000
vn 0.000000 0.000000 1.000000
vn 1.000000 0.000000 0.000000
vn 0.707107 0.000000 -0.707106
vn 0.000000 0.000000 -1.000000
vn 0.000000 0.000000 -1.000000
vn -0.707107 0.000000 -0.707106
vn -1.000000 0.000000 0.000000
s 1
g pCube4
usemtl blinn3SG
f 7/1/1 8/2/2 4/3/3 3/4/4
f 8/2/2 9/6/5 5/8/6 4/3/3
f 9/6/5 10/13/7 6/14/8 5/8/6
f 1/15/9 2/16/10 9/6/5 8/2/2
s 2
usemtl blinn1SG
f 18/5/11 17/7/12 26/9/13 28/10/14
f 17/7/12 19/11/15 27/12/16 26/9/13
f 19/11/15 17/7/12 21/17/17 20/18/18
f 17/7/12 18/5/11 22/19/19 21/17/17
f 23/20/20 25/21/21 26/9/13 27/12/16
f 25/21/21 24/22/22 28/10/14 26/9/13
s 3
f 30/23/23 29/24/24 32/25/25 33/26/26
f 29/24/24 31/27/27 34/28/28 32/25/25
f 33/26/26 32/25/25 36/29/29 35/30/30
f 32/25/25 34/28/28 37/31/31 36/29/29
s 4
f 39/32/32 38/33/33 41/34/34 42/35/35
f 38/33/33 40/36/36 43/37/37 41/34/34
f 42/35/35 41/34/34 44/38/38 46/39/39
f 41/34/34 43/37/37 45/40/40 44/38/38
s 2
f 19/11/15 20/18/18 11/41/41 12/42/42
f 23/20/20 27/12/16 13/43/43 14/44/44
f 27/12/16 19/11/15 12/42/42 13/43/43
s 3
f 15/45/45 30/23/23 33/26/26 35/30/30
s 4
f 42/35/35 46/39/39 16/46/46 39/32/32
s 2
usemtl blinn2SG
f 5/47/47 6/48/48 22/49/19 18/50/11
f 3/51/49 4/52/50 28/53/14 24/54/22
f 4/52/50 5/47/47 18/50/11 28/53/14
s 3
f 1/63/51 8/64/52 34/65/28 31/66/27
f 8/55/52 7/56/53 37/57/31 34/58/28
s 4
f 10/59/54 9/60/55 43/61/37 40/62/36
f 9/67/55 2/68/56 45/69/40 43/70/37
